<?xml version="1.0" standalone="no"?>
<!DOCTYPE svg PUBLIC "-//W3C//DTD SVG 20010904//EN"
 "http://www.w3.org/TR/2001/REC-SVG-20010904/DTD/svg10.dtd">
<svg version="1.0" xmlns="http://www.w3.org/2000/svg"
 width="1280.000000pt" height="979.000000pt" viewBox="0 0 1280.000000 979.000000"
 preserveAspectRatio="xMidYMid meet">
<g transform="translate(0.000000,979.000000) scale(0.100000,-0.100000)"
fill="#000000" stroke="none">
<path d="M4003 9770 c-157 -41 -192 -77 -328 -337 -54 -103 -177 -336 -273
-518 -417 -784 -649 -1346 -702 -1695 -28 -186 -26 -213 24 -332 l16 -37 92
48 c51 26 158 73 238 104 80 31 210 81 290 112 80 31 163 64 185 72 39 15 43
15 159 -22 65 -21 125 -45 133 -54 21 -20 13 -55 -47 -223 -79 -218 -110 -278
-187 -366 -37 -43 -84 -97 -103 -120 -40 -49 -90 -71 -165 -72 -28 0 -104 -7
-170 -14 -200 -25 -277 -28 -347 -17 -37 6 -75 14 -84 18 -30 11 -13 -103 27
-178 32 -60 37 -64 94 -84 33 -11 73 -29 88 -39 34 -23 206 -229 255 -305 47
-74 112 -249 112 -303 0 -32 -24 -98 -95 -262 -52 -121 -100 -225 -107 -232
-11 -11 -22 -10 -63 3 -44 15 -80 16 -380 5 -340 -12 -486 -26 -733 -67 -160
-27 -433 -92 -532 -126 -65 -22 -207 -89 -289 -137 -41 -24 -42 -26 -25 -40
16 -11 63 -13 256 -10 260 4 290 -3 174 -41 -156 -50 -394 -181 -576 -317
-129 -97 -332 -297 -430 -424 -240 -313 -421 -756 -474 -1160 -9 -69 -21 -158
-26 -198 -13 -93 -13 -231 0 -324 5 -40 17 -129 25 -198 79 -625 363 -1128
851 -1508 124 -97 292 -188 489 -265 202 -80 566 -123 825 -98 248 24 306 32
380 52 296 80 586 228 805 410 324 271 630 751 754 1184 54 192 91 460 98 719
l6 209 63 -6 c77 -7 94 -2 94 28 0 45 -50 311 -70 379 -17 53 -20 81 -15 134
8 81 -3 119 -86 286 -32 65 -59 131 -59 146 0 43 -65 162 -125 229 -58 66 -66
88 -37 114 29 27 198 87 243 87 29 0 50 7 71 25 25 21 40 25 92 25 35 0 87 5
116 10 98 18 124 -24 74 -122 -32 -63 -54 -163 -54 -250 0 -62 -3 -70 -32
-104 l-33 -37 2 -111 c1 -61 9 -154 17 -206 23 -139 21 -306 -4 -372 -11 -29
-20 -75 -20 -103 0 -50 1 -51 80 -125 43 -41 85 -89 92 -106 13 -30 196 -211
298 -294 30 -24 93 -78 140 -120 119 -107 199 -166 240 -178 19 -6 69 -14 110
-17 41 -4 102 -11 135 -15 33 -5 131 -16 218 -24 86 -9 198 -23 247 -33 83
-16 120 -16 458 -5 202 7 491 15 642 18 268 6 276 7 312 30 40 26 78 32 78 12
0 -6 10 -22 21 -34 13 -14 23 -41 26 -71 3 -26 12 -56 21 -65 22 -26 61 -23
71 6 5 13 19 26 30 29 19 5 21 13 21 71 0 63 1 66 24 66 14 0 27 4 31 9 3 5
67 8 148 5 l142 -4 83 41 c77 39 86 41 139 35 32 -4 81 -14 110 -22 l52 -15
73 35 72 36 145 0 c144 0 145 0 166 26 35 44 65 14 81 -81 13 -76 85 -271 149
-400 200 -407 500 -707 868 -867 169 -74 351 -108 572 -108 354 0 630 80 902
262 361 242 700 765 801 1238 50 232 66 576 38 790 -69 513 -317 991 -664
1281 -281 235 -546 343 -898 368 -143 10 -166 21 -146 66 15 32 69 65 108 65
25 0 33 6 48 37 10 21 28 54 41 73 17 26 24 55 28 115 3 44 13 97 22 118 15
36 14 51 -11 244 -27 200 -27 206 -9 219 10 8 38 14 61 14 55 0 124 46 268
180 122 113 133 121 162 110 28 -11 107 -101 128 -145 22 -45 16 -60 -29 -79
-25 -11 -34 -20 -29 -28 23 -41 166 -236 186 -255 12 -12 66 -44 118 -73 112
-60 136 -82 200 -175 26 -38 80 -110 120 -160 73 -90 100 -137 100 -174 0 -11
18 -34 41 -53 39 -31 123 -135 231 -288 84 -119 131 -145 218 -123 46 12 49
35 17 132 -76 232 -81 252 -63 269 14 14 34 17 101 15 47 -2 96 2 109 7 l24 9
-117 293 c-65 161 -130 328 -145 370 -16 43 -37 89 -47 102 -12 15 -56 39
-113 61 -118 46 -136 63 -136 137 0 40 -5 62 -20 81 -25 32 -25 52 0 77 13 13
33 20 61 20 64 0 79 13 79 69 0 55 -7 61 -71 61 -50 0 -89 16 -170 71 -128 86
-140 111 -59 128 28 6 58 11 66 11 8 0 26 11 40 25 20 20 23 29 14 45 -16 31
-84 43 -240 45 l-145 1 1 31 c2 35 92 176 124 193 17 9 20 21 20 84 0 71 1 75
32 101 41 35 155 92 201 100 51 10 65 -5 73 -76 7 -60 28 -95 43 -70 4 7 6 46
3 87 -4 61 -2 78 12 93 17 18 17 21 0 48 -51 81 -58 83 -227 57 -84 -13 -111
-13 -154 -3 -65 15 -211 0 -393 -41 -237 -53 -391 -75 -765 -110 -214 -20
-362 -43 -515 -80 -259 -63 -679 -174 -703 -187 -16 -8 -42 -34 -59 -58 -31
-44 -67 -65 -148 -86 -93 -23 -167 -65 -194 -108 -15 -23 -30 -41 -34 -42 -4
-1 -22 -2 -40 -4 -35 -3 -134 -66 -327 -208 -167 -124 -180 -129 -302 -135
-130 -6 -376 15 -472 39 -41 11 -96 31 -123 47 -70 40 -212 168 -356 320 -69
74 -166 168 -216 210 -73 63 -118 115 -246 287 -210 282 -380 481 -457 532
-22 14 -207 66 -303 84 -76 14 -318 29 -465 29 -181 0 -256 -12 -320 -51 -27
-17 -87 -40 -133 -51 -46 -12 -97 -31 -115 -44 -80 -59 -88 -63 -117 -52 -38
13 -63 42 -56 65 9 29 63 65 131 88 50 17 63 27 77 57 14 28 31 42 85 67 37
18 115 58 173 90 l105 58 110 -2 c105 -1 114 -3 194 -39 l84 -38 95 25 c106
28 122 26 171 -27 34 -37 80 -46 187 -39 l92 6 17 37 c15 34 16 40 1 68 -15
28 -15 32 1 48 14 14 29 16 93 10 139 -13 424 -36 515 -42 l90 -6 55 39 c77
54 100 92 100 164 0 91 6 89 -342 100 -161 5 -305 12 -319 15 -43 10 -162 106
-187 152 -13 23 -29 42 -37 42 -7 0 -42 14 -77 30 -45 21 -92 33 -149 40 -46
5 -121 13 -167 18 -45 5 -89 16 -98 23 -25 21 -14 130 21 199 36 73 217 252
303 300 35 19 79 47 99 63 43 32 74 34 112 6 53 -39 124 -31 315 36 197 68
237 94 260 162 20 62 46 213 46 275 0 41 -5 52 -34 82 -44 43 -92 51 -242 36
-258 -24 -335 -39 -377 -73 -15 -12 -56 -71 -92 -131 -60 -100 -65 -113 -65
-166 0 -40 -5 -61 -16 -71 -31 -26 -137 -184 -146 -219 -7 -24 -42 -68 -115
-142 -111 -115 -136 -157 -147 -247 -10 -81 -50 -155 -118 -219 -33 -31 -69
-72 -80 -91 -29 -46 -71 -61 -175 -61 -117 0 -161 -13 -168 -48 -21 -100 -35
-115 -87 -93 -40 17 -67 18 -228 2 -108 -11 -132 -11 -185 3 -33 9 -89 20
-124 26 -41 6 -72 17 -86 30 -16 15 -30 19 -48 15 -35 -9 -46 15 -40 86 6 66
11 62 -99 74 -31 3 -62 12 -68 20 -8 10 -9 41 -5 102 7 81 5 93 -19 153 -35
84 -41 134 -26 201 6 30 15 111 19 181 7 116 10 131 35 167 38 55 52 108 80
309 49 344 46 390 -26 468 -53 57 -140 99 -257 124 -115 24 -183 24 -278 0z
m349 -58 c74 -21 123 -53 165 -109 27 -35 28 -41 27 -142 -1 -60 -13 -177 -28
-271 -40 -252 -44 -270 -66 -270 -12 0 -21 10 -25 30 -8 35 -31 50 -75 50 -40
0 -84 -23 -137 -71 -24 -22 -48 -39 -55 -40 -7 -1 -40 -2 -73 -3 -75 -1 -109
-19 -261 -133 -115 -87 -118 -88 -188 -95 -39 -3 -88 -10 -108 -13 l-37 -8 2
51 c2 41 -2 55 -22 76 -14 14 -33 26 -43 26 -36 0 -29 29 30 137 32 59 128
241 212 403 84 162 161 307 172 322 21 30 86 65 149 78 70 15 284 4 361 -18z
m-274 -1068 c26 -17 29 -55 6 -79 -9 -9 -39 -27 -67 -42 -28 -14 -88 -61 -133
-104 -75 -72 -86 -79 -122 -79 -46 0 -72 8 -72 22 0 5 11 24 25 42 14 18 25
45 25 60 0 19 10 36 32 54 36 30 70 64 111 110 15 17 37 33 50 35 36 8 120 -3
145 -19z m-412 -68 c3 -8 -19 -54 -49 -102 -30 -49 -67 -113 -82 -142 -26 -49
-32 -54 -84 -68 -31 -8 -69 -20 -85 -25 -16 -5 -40 -9 -54 -9 -21 0 -23 3 -18
26 4 15 30 75 57 133 49 105 50 106 112 140 101 56 192 77 203 47z m661 -140
c45 -51 69 -116 85 -227 11 -74 11 -78 -15 -130 -14 -30 -27 -63 -29 -74 -3
-18 -11 -20 -73 -19 -86 2 -152 19 -164 42 -11 21 -9 28 49 236 67 242 76 253
147 172z m953 -746 c14 -26 32 -25 80 2 37 22 39 22 59 4 28 -25 17 -43 -50
-76 -69 -35 -96 -37 -143 -9 -38 22 -164 44 -201 35 -13 -3 -32 -22 -44 -41
-22 -37 -57 -47 -68 -19 -3 9 -2 37 3 63 l9 46 135 5 c74 3 152 7 172 8 28 2
40 -3 48 -18z m680 -799 c5 -11 10 -33 10 -50 0 -16 5 -33 10 -36 18 -11 11
-24 -27 -49 -47 -31 -160 -47 -174 -25 -14 22 -11 35 15 66 13 16 26 40 28 53
6 48 116 81 138 41z m-372 -49 c15 -10 6 -38 -15 -46 -11 -5 -12 -10 -5 -19 7
-8 5 -26 -5 -57 -21 -62 -40 -82 -77 -78 -32 3 -36 12 -22 56 7 22 6 23 -16
17 -36 -11 -66 -44 -81 -88 -10 -30 -21 -43 -41 -50 -41 -14 -53 3 -37 49 31
85 -30 49 -77 -46 -36 -73 -89 -126 -116 -117 -20 6 -18 45 5 97 12 28 20 53
17 55 -2 2 -14 2 -26 -2 -17 -4 -22 -13 -22 -38 0 -19 -3 -40 -6 -49 -7 -18
-94 -49 -126 -44 -20 3 -23 8 -20 46 4 51 -3 52 -76 16 -58 -29 -89 -65 -94
-109 -3 -27 -12 -35 -90 -72 -49 -23 -88 -45 -88 -47 0 -3 6 -4 13 -1 6 2 83
27 171 55 87 28 165 49 174 45 26 -10 -22 -50 -89 -75 -57 -22 -59 -23 -39
-37 19 -14 24 -13 44 6 26 24 51 27 59 7 5 -13 -62 -129 -97 -168 -25 -28 -65
-34 -81 -12 -8 11 -15 14 -15 8 0 -22 -49 -64 -75 -64 -22 0 -25 4 -25 33 0
17 5 52 11 76 5 24 7 46 5 49 -3 2 -31 -47 -61 -111 l-56 -116 -88 -50 c-49
-28 -98 -51 -110 -51 -32 0 -27 39 15 100 51 74 96 152 90 157 -2 2 -21 0 -42
-6 -46 -13 -89 4 -89 34 0 17 20 27 115 59 63 22 109 41 102 44 -32 10 3 53
189 238 110 109 206 210 212 224 20 41 193 91 212 60 3 -5 -2 -38 -11 -72 -8
-35 -16 -67 -17 -73 -4 -22 39 -1 77 38 31 32 60 49 121 70 44 15 88 27 97 27
26 0 32 -19 11 -42 -13 -15 -14 -19 -3 -15 8 3 41 11 72 18 48 11 57 16 55 33
-1 12 7 25 23 33 29 15 31 15 48 5z m190 -8 c-3 -19 -15 -26 -70 -48 -43 -17
-55 -52 -15 -43 29 8 50 -6 45 -28 -2 -12 -22 -25 -53 -36 -63 -22 -104 -24
-111 -4 -8 20 25 102 52 128 44 42 159 65 152 31z m475 -173 c255 -124 307
-172 293 -265 -11 -68 -157 -423 -270 -656 -23 -46 -35 -83 -31 -97 6 -27 -80
-210 -107 -224 -31 -17 -51 5 -122 128 -38 65 -95 159 -127 208 -31 50 -60
101 -64 115 -3 14 6 86 20 160 15 74 27 154 27 178 0 85 -38 101 -271 113
-220 11 -293 18 -310 29 -20 12 -8 72 26 127 l29 47 262 88 c338 113 395 129
455 123 32 -3 94 -27 190 -74z m-1010 -266 c-6 -105 -12 -125 -43 -125 -26 0
-40 28 -29 58 24 62 -34 20 -62 -45 -18 -43 -50 -68 -75 -59 -20 8 -17 38 11
108 27 67 37 77 75 78 14 0 36 7 50 15 14 8 36 14 50 12 23 -2 25 -6 23 -42z
m-183 11 c0 -8 -9 -21 -20 -29 -11 -8 -17 -16 -14 -20 3 -3 -1 -30 -10 -60
-24 -84 -114 -151 -133 -100 -8 19 53 138 81 158 10 7 15 18 11 25 -11 19 16
40 51 40 23 0 34 -5 34 -14z m6414 -98 c30 -43 14 -166 -35 -266 -24 -48 -59
-91 -157 -188 -70 -69 -150 -143 -179 -166 l-53 -41 -89 7 -90 7 -305 -307
c-182 -183 -320 -330 -342 -365 -46 -71 -72 -83 -158 -69 -148 23 -555 70
-611 70 -75 0 -89 11 -75 62 14 50 56 105 189 246 130 138 227 222 332 282 68
40 83 64 43 66 -40 2 -44 5 -44 29 0 30 30 51 88 60 26 4 57 18 75 35 18 15
82 48 142 73 61 25 138 57 173 72 57 24 72 26 175 23 l112 -3 88 43 c81 40 87
45 87 73 0 44 41 79 135 118 44 19 111 49 149 68 43 22 90 37 125 40 31 3 76
16 101 29 59 30 104 31 124 2z m-5908 -42 c44 -8 102 -18 130 -21 69 -9 114
-37 114 -71 0 -29 -49 -358 -110 -734 -21 -135 -61 -381 -87 -548 -48 -301
-48 -303 -83 -350 -21 -28 -44 -47 -55 -47 -19 0 -20 7 -18 94 2 51 14 215 28
365 29 319 85 1024 85 1079 0 49 -38 87 -117 117 -104 39 -165 38 -338 -6
-142 -35 -184 -39 -159 -14 25 25 429 148 490 149 23 1 77 -5 120 -13z m1475
-627 c19 -9 60 -37 90 -61 127 -101 657 -485 685 -496 26 -11 38 -10 75 3 134
49 126 47 156 33 16 -8 60 -61 110 -133 117 -169 115 -185 -30 -240 -132 -49
-196 -34 -357 86 -146 108 -699 489 -747 515 -55 29 -87 30 -133 6 -255 -137
-465 -242 -481 -242 -10 0 -28 9 -39 20 -31 31 -26 89 14 168 61 120 87 147
178 189 46 21 139 67 207 102 69 35 136 67 150 72 32 9 75 2 122 -22z m-3535
-104 c9 -14 14 -36 11 -51 -3 -16 0 -28 9 -31 7 -2 27 -26 44 -53 30 -46 30
-49 17 -86 -31 -83 -217 -460 -240 -486 -32 -37 -60 -35 -103 5 -19 17 -41 38
-49 45 -8 7 -15 26 -15 42 0 36 214 580 242 615 25 33 63 32 84 0z m768 -51
c35 -34 21 -76 -199 -573 -258 -584 -243 -553 -278 -565 -57 -20 -84 35 -52
110 14 34 14 39 -1 62 -10 15 -14 38 -12 61 3 22 -1 45 -10 59 -21 33 -11 65
77 257 44 93 91 199 106 235 38 90 94 202 113 223 8 9 22 17 30 17 8 0 27 11
44 25 16 14 40 25 54 25 13 0 24 4 24 9 0 15 57 71 73 71 9 0 23 -7 31 -16z
m-755 -613 c6 -10 29 -70 51 -132 46 -126 47 -151 10 -237 -29 -67 -45 -76
-96 -53 -28 13 -55 39 -90 87 -28 38 -54 77 -57 86 -6 17 89 214 121 251 20
22 49 22 61 -2z m2715 -176 c18 -18 40 -89 56 -177 6 -34 18 -72 27 -85 11
-16 14 -36 10 -66 -5 -35 -1 -49 20 -80 24 -34 25 -42 16 -68 -10 -26 -6 -47
33 -159 24 -71 44 -137 44 -147 0 -32 -23 -53 -63 -60 -30 -4 -45 -1 -67 16
l-30 21 -127 -55 c-70 -30 -131 -59 -137 -65 -5 -5 -9 -33 -7 -61 4 -74 -13
-89 -101 -89 -84 0 -132 18 -152 59 -26 50 -20 93 21 152 48 70 63 114 56 169
-5 44 -4 47 33 72 32 21 43 38 63 94 19 54 34 79 72 115 l49 45 -2 70 c-2 67
0 73 45 150 26 45 47 84 47 89 0 16 51 75 65 75 7 0 21 -7 29 -15z m-4066
-693 c18 -24 15 -51 -22 -232 -19 -91 -45 -221 -56 -290 -26 -149 -40 -180
-78 -180 -15 0 -38 9 -52 20 -33 25 -90 25 -170 0 -34 -11 -73 -20 -85 -20
-15 0 -38 -18 -68 -54 -48 -55 -63 -64 -159 -90 -41 -12 -71 -29 -110 -65 -57
-52 -76 -86 -103 -185 -11 -39 -26 -68 -43 -83 -93 -78 -90 -74 -129 -196 -35
-113 -36 -120 -23 -165 24 -82 24 -135 1 -180 -25 -50 -27 -108 -5 -205 20
-89 24 -95 85 -163 49 -54 49 -55 49 -122 0 -77 20 -117 101 -205 37 -40 54
-49 109 -63 94 -23 118 -41 134 -94 15 -54 43 -71 159 -94 64 -13 89 -14 147
-5 l70 12 53 -36 c28 -19 70 -40 92 -46 58 -16 170 -14 212 4 49 21 88 19 133
-7 l39 -23 93 24 c110 28 126 37 198 112 43 46 63 59 95 64 22 3 50 8 63 11
34 7 118 100 170 189 60 102 93 125 177 125 70 0 78 6 94 66 6 22 23 51 37 65
25 23 26 27 20 96 -6 69 -6 73 18 88 60 40 169 26 187 -23 22 -58 -66 -345
-171 -557 -239 -484 -591 -775 -1069 -886 -125 -30 -395 -37 -524 -15 -279 47
-520 178 -731 397 -214 221 -358 502 -442 864 -26 112 -28 134 -28 335 1 340
42 555 157 823 141 328 357 596 617 769 212 141 352 197 580 232 106 16 159
13 178 -12z m4456 -158 c22 -8 20 -52 -4 -92 -11 -18 -20 -43 -20 -55 0 -20
-71 -151 -149 -275 -15 -23 -54 -64 -87 -90 -54 -44 -60 -54 -76 -112 -22 -79
-63 -147 -108 -178 -40 -27 -66 -24 -114 13 -27 21 -41 24 -103 22 -57 -2 -75
2 -92 17 -51 46 -54 187 -5 276 40 74 103 126 298 247 94 58 192 120 217 138
100 71 197 107 243 89z m4266 -78 c117 -47 205 -104 288 -184 48 -46 63 -67
60 -84 -3 -23 -4 -23 -138 -20 -74 1 -245 11 -380 22 -134 11 -302 20 -373 20
-187 0 -208 21 -109 111 61 56 145 100 288 149 79 27 99 30 179 27 76 -3 105
-9 185 -41z m-3921 -277 c87 -26 201 -143 266 -273 19 -38 35 -83 35 -100 0
-19 11 -47 25 -66 31 -42 32 -74 1 -114 -12 -17 -26 -52 -30 -79 -4 -26 -25
-83 -47 -126 -49 -98 -115 -162 -225 -217 -75 -37 -83 -39 -174 -39 -86 0
-101 3 -155 30 -64 32 -153 114 -197 182 -24 38 -32 42 -114 64 -106 28 -143
56 -150 114 -7 55 18 92 108 158 90 67 104 83 113 127 14 66 69 164 125 220
117 118 274 162 419 119z m4237 -475 c65 -27 174 -104 189 -134 21 -40 19 -76
-5 -100 -16 -16 -25 -18 -40 -10 -11 6 -20 14 -20 19 0 23 -90 126 -136 157
-63 41 -70 50 -54 69 15 19 19 19 66 -1z m-9607 -130 c12 -15 21 -38 21 -53 0
-37 -34 -88 -75 -112 -38 -23 -59 -69 -90 -199 -23 -95 -50 -125 -106 -117
-22 3 -47 11 -56 18 -51 43 58 324 173 446 33 35 47 43 77 43 27 0 41 -7 56
-26z m1962 -101 c8 -23 13 -83 13 -153 0 -98 -5 -127 -27 -195 -15 -44 -38
-100 -50 -125 -19 -38 -26 -45 -52 -45 -38 0 -45 32 -16 78 13 22 20 49 19 78
0 25 5 56 11 68 7 12 9 31 6 41 -7 22 -20 26 -109 35 -134 13 -130 57 12 140
40 23 67 46 73 63 16 42 29 52 69 52 35 0 39 -3 51 -37z m-1680 -67 c13 -28
-8 -104 -44 -157 -29 -43 -41 -45 -72 -15 -32 32 -32 67 0 122 43 73 96 96
116 50z m9603 -101 c24 -25 30 -83 19 -187 -16 -138 -59 -207 -118 -184 -21 8
-19 36 10 112 20 52 25 85 25 154 0 67 4 92 16 104 19 20 29 20 48 1z m-5450
-130 c22 -22 108 -294 104 -330 -2 -24 -8 -31 -31 -33 -22 -3 -49 15 -145 94
-198 165 -223 194 -189 222 12 10 197 60 229 61 9 1 24 -6 32 -14z m351 -103
c17 -10 47 -35 68 -54 45 -43 48 -77 10 -113 -36 -33 -101 -65 -119 -58 -21 8
-64 139 -64 195 0 47 52 62 105 30z m2485 -40 c54 -17 55 -18 64 -65 13 -76
12 -77 -116 -77 -117 0 -158 12 -158 46 0 41 84 115 130 113 14 0 50 -8 80
-17z m-7458 -119 c9 -10 19 -45 23 -78 10 -88 60 -230 105 -298 22 -33 40 -66
40 -74 0 -26 -48 -65 -73 -58 -62 18 -179 195 -210 320 -30 115 -31 147 -7
178 17 22 30 27 64 27 28 0 48 -6 58 -17z m5248 -64 c54 -33 80 -60 80 -86 0
-29 -18 -33 -140 -36 -92 -2 -95 -1 -98 21 -3 17 10 37 46 73 27 27 55 49 63
49 8 0 30 -10 49 -21z m4626 -64 c9 -35 -20 -79 -63 -98 -61 -26 -143 -39
-159 -26 -26 21 -14 39 41 63 30 14 75 40 100 60 50 37 72 38 81 1z m-1183
-167 c12 -6 40 -26 63 -44 90 -74 188 -84 314 -33 41 17 102 33 135 36 58 5
62 4 104 -31 62 -52 67 -54 198 -76 133 -23 180 -20 214 16 12 13 29 24 37 24
9 0 46 14 83 31 126 58 131 18 19 -150 -171 -256 -356 -405 -553 -445 -42 -9
-91 -16 -109 -16 -47 0 -153 24 -220 50 -85 32 -230 131 -311 213 -82 82 -177
233 -177 280 0 39 37 86 96 126 51 33 73 37 107 19z m-7194 -102 c17 -20 -6
-62 -58 -109 -72 -65 -132 -40 -135 54 -1 56 19 69 110 69 50 0 75 -4 83 -14z"/>
<path d="M5850 6780 c0 -5 7 -7 15 -4 8 4 15 8 15 10 0 2 -7 4 -15 4 -8 0 -15
-4 -15 -10z"/>
<path d="M5308 6733 c7 -3 16 -2 19 1 4 3 -2 6 -13 5 -11 0 -14 -3 -6 -6z"/>
<path d="M4920 6681 c-60 -53 -61 -70 -3 -55 30 7 38 16 50 48 7 22 12 44 11
48 -2 5 -28 -13 -58 -41z"/>
<path d="M4708 6288 c-31 -11 -35 -20 -15 -37 10 -8 19 -4 36 19 23 32 21 34
-21 18z"/>
<path d="M6220 6515 c-148 -67 -159 -254 -20 -325 51 -26 125 -26 166 -1 68
41 95 170 54 250 -36 71 -130 107 -200 76z"/>
<path d="M11076 6129 c-66 -26 -122 -51 -125 -55 -10 -9 51 -53 90 -65 29 -9
46 -8 87 5 63 21 132 70 132 94 0 17 -28 50 -55 65 -6 3 -64 -17 -129 -44z"/>
<path d="M10334 5821 c-33 -16 -84 -36 -113 -46 -58 -19 -68 -33 -51 -65 16
-29 98 -80 130 -80 43 0 220 87 220 108 0 21 -90 112 -110 112 -8 -1 -42 -14
-76 -29z"/>
<path d="M3180 6961 c-219 -74 -293 -104 -338 -137 -50 -39 -85 -121 -90 -215
-5 -87 6 -115 70 -185 47 -51 49 -51 218 -29 229 31 268 48 331 148 18 28 50
75 71 103 53 71 68 121 68 224 l0 88 -35 31 c-51 44 -88 41 -295 -28z m208
-67 c33 -23 29 -76 -12 -160 -46 -97 -89 -144 -130 -144 -105 0 -145 207 -59
302 22 24 167 26 201 2z"/>
<path d="M2590 6914 c-14 -37 -12 -180 5 -327 15 -126 34 -197 54 -197 14 0
15 23 11 255 -2 173 -5 195 -26 243 -12 28 -26 52 -29 52 -3 0 -10 -12 -15
-26z"/>
</g>
</svg>
