<svg height="512pt" viewBox="0 -96 512.001 512" width="512pt" xmlns="http://www.w3.org/2000/svg"><path d="m432 160c-7.511719 0-14.777344 1.0625-21.675781 3.007812l-7.753907-18.355468c18.664063-9.136719 41.226563-15.855469 67.65625-20.125 4.902344-.792969 8.480469-5.0625 8.402344-10.03125-.035156-2.308594-.019531-4.621094-.003906-6.859375.101562-14.527344.207031-29.550781-13.882812-47.144531-14.089844-17.597657-40.824219-35.914063-86.679688-59.394532-3.097656-1.585937-6.800781-1.445312-9.773438.371094-2.972656 1.816406-4.785156 5.046875-4.785156 8.53125 0 42.386719-2.511718 59.757812-17.246094 71.507812-58.875-28.71875-91.839843-40.699218-117.015624-31.894531-18.035157 6.3125-29.574219 22.355469-42.121094 47.75l-59.082032-13.898437c-5.378906-1.265625-10.757812 2.066406-12.023437 7.445312-1.265625 5.375 2.066406 10.757813 7.445313 12.023438l111.148437 26.144531c-5.367187 3.027344-10.589844 6.367187-15.589844 10.074219-.53125.324218-1.035156.699218-1.503906 1.125-6.394531 4.882812-12.398437 10.410156-17.847656 16.734375l-146.554688-82.535157c2.476563-3.25 7.410157-4.988281 19.683594-4.660156.503906.011719 1.019531.03125 1.539063.050782 5.507812.21875 10.167968-4.078126 10.390624-9.597657.21875-5.519531-4.078124-10.167969-9.597656-10.386719-.609375-.027343-1.207031-.046874-1.800781-.0625-24.984375-.644531-37.269531 7.0625-42.3125 26.648438-1.132813 4.386719.828125 8.984375 4.773437 11.207031l152.203126 85.714844c-3.152344 5.410156-5.960938 11.277344-8.371094 17.660156l-30.578125 8.523438c-14.242188-24.292969-40.484375-39.574219-69.042969-39.574219-44.113281 0-80 35.886719-80 80 0 44.109375 35.886719 80 80 80 19.371094 0 38.0625-7.015625 52.628906-19.75 12.207032-10.671875 20.816406-24.738281 24.820313-40.25h168.53125c5.523437 0 10-4.476562 10-10 0-41.574219 16.46875-73.429688 49.113281-95.316406l6.816406 16.132812c-23.835937 13.867188-39.910156 39.675782-39.910156 69.183594 0 44.113281 35.890625 80 80 80 6.992188 0 13.957031-.917969 20.707031-2.726562 5.335938-1.429688 8.5-6.910157 7.070313-12.246094-1.429688-5.335938-6.914063-8.503906-12.246094-7.070313-5.0625 1.355469-10.285156 2.042969-15.53125 2.042969-33.082031 0-60-26.917969-60-60 0-21.230469 11.09375-39.902344 27.777344-50.570312l4.75 11.246093c-12.398438 8.6875-20.527344 23.070313-20.527344 39.324219 0 26.464844 21.535156 48 48 48 26.46875 0 48-21.535156 48-48 0-26.46875-21.53125-48-48-48-3.097656 0-6.121094.304688-9.058594.867188l-4.75-11.246094c4.4375-1.046875 9.054688-1.621094 13.808594-1.621094 33.085938 0 60 26.917969 60 60 0 5.242188-.6875 10.46875-2.042969 15.527344-1.429687 5.335937 1.734375 10.820312 7.070313 12.25 5.332031 1.425781 10.816406-1.738282 12.246094-7.070313 1.8125-6.75 2.726562-13.71875 2.726562-20.707031 0-44.113281-35.886719-80-80-80zm14.1875-90.398438-64.972656-14.328124c1.375-8.625 1.941406-18.1875 2.160156-28.816407 33.898438 18.199219 52.554688 31.691407 62.8125 43.144531zm-239.058594 32.464844c9.351563-18.304687 17.710938-29.722656 28.71875-33.574218 16.8125-5.882813 44.835938 3.910156 89.039063 24.917968-10.035157 4.34375-21.238281 8.132813-32.839844 12.058594-.039063.011719-.078125.023438-.113281.035156-.007813.003906-.015625.007813-.023438.007813-9.0625 3.066406-18.496094 6.261719-27.917968 9.929687zm119.386719 91.761719-83.089844-46.792969c15.3125-8.816406 32.550781-14.984375 49.792969-20.847656l50.46875 38.875c-7.070312 8.769531-12.796875 18.363281-17.171875 28.765625zm-156.253906 46.171875h-81.277344c.640625-2.898438 2.921875-3.738281 6.011719-4.601562l78.316406-21.824219c-1.578125 8.121093-2.621094 16.902343-3.050781 26.425781zm-99.945313 12.492188c1.136719 4.417968 5.121094 7.507812 9.683594 7.507812h19.558594c-5.113282 4.984375-12.0625 8-19.558594 8-15.4375 0-28-12.5625-28-28 0-15.441406 12.5625-28 28-28 4.636719 0 9.070312 1.128906 13.007812 3.191406l-3.382812.941406c-17.003906 4.738282-24.042969 17.992188-19.308594 36.359376zm9.683594 47.503906c-33.085938 0-60-26.914063-60-60 0-33.082032 26.914062-60 60-60 19.601562 0 37.742188 9.605468 48.871094 25.199218l-12.507813 3.484376c-9.042969-10.546876-22.152343-16.683594-36.363281-16.683594-26.46875 0-48 21.535156-48 48 0 26.46875 21.53125 48 48 48 18.949219 0 35.929688-11.191406 43.640625-28h12.917969c-8.335938 23.449218-30.894532 40-56.558594 40zm110.28125-59.996094c1.960938-39.242188 15.585938-63.585938 34.976562-80.242188l94.914063 53.449219c-2.0625 8.492188-3.371094 17.417969-3.910156 26.789063zm167.257812-89.515625-41.660156-32.085937c13.226563-4.757813 25.601563-9.882813 36.375-16.667969.183594-.117188.359375-.242188.546875-.359375.066407-.042969.136719-.085938.203125-.132813 11.3125-7.308593 18.445313-16.0625 22.929688-26.648437l81.984375 18.082031c.710937 4.445313.742187 8.875.714843 13.53125-16.566406 2.988281-46.214843 9.609375-73.480468 24.738281-.210938.105469-.414063.21875-.613282.335938-3.089843 1.734375-6.148437 3.570312-9.152343 5.527344-6.480469 4.226562-12.421875 8.792968-17.847657 13.679687zm74.460938 61.511719c15.441406 0 28 12.5625 28 28 0 15.441406-12.558594 28-28 28-15.4375 0-28-12.558594-28-28 0-7.921875 3.3125-15.078125 8.617188-20.175782l10.171874 24.070313c1.613282 3.816406 5.316407 6.109375 9.214844 6.109375 1.300782 0 2.617188-.253906 3.890625-.792969 5.085938-2.148437 7.46875-8.015625 5.316407-13.101562l-10.175782-24.085938c.320313-.007812.640625-.023437.964844-.023437zm0 0"/><path d="m102.0625 72.761719.339844.046875c.476562.066406.949218.101562 1.417968.101562 4.898438 0 9.179688-3.605468 9.890626-8.59375.777343-5.46875-3.023438-10.53125-8.492188-11.308594l-.402344-.058593c-5.46875-.761719-10.523437 3.058593-11.28125 8.53125-.761718 5.46875 3.058594 10.519531 8.527344 11.28125zm0 0"/><path d="m496 284c0 5.523438-4.476562 10-10 10s-10-4.476562-10-10 4.476562-10 10-10 10 4.476562 10 10zm0 0"/></svg>